# xmcd CD database file
#
# Track frame offsets:
#	183
#	12438
#	25283
#	36888
#	48535
#	59258
#	70958
#	83340
#	95203
#	105478
#	116835
#	126790
#	137215
#	146948
#	160055
#	173440
#	185935
#	196208
#	207970
#	220158
#	230990
#	242000
#	256720
#	266998
#	276333
#
# Disc length: 3870 seconds
#
# Revision: 4
# Processed by: cddbd v1.5.1PL2 Copyright (c) Steve Scherf et al.
# Submitted via: CDex 1.51
#
DISCID=7f0f1c19
DTITLE=Various Artist - This Is Country Music - 25 Super Hits
DYEAR=1900
DGENRE=Country
TTITLE0=Billie Jo Spears - What I've Got In Mind
TTITLE1=Kenny Rogers - Ruby, Don't Take Your Love To Town
TTITLE2=George Jones - White Lightning
TTITLE3=Sandie Posey - Single Girl
TTITLE4=Ferlin Husky - The Wings Of A Dove
TTITLE5=Roger Miller - Little Green Apples
TTITLE6=Charlie Rich) - My Heart Cries For You
TTITLE7=Johnny Cash - I Walk The Line
TTITLE8=Glen Campbell - Walk Right In
TTITLE9=Patsy Cline - Walking After Midnight
TTITLE10=Buck Owens - Rhythm and Booze
TTITLE11=Conway Twitty - Borne To Sing The Blues
TTITLE12=Jerry Lee Lewis - Down The Line
TTITLE13=George Hamilton IV - Blues Eyes Crying In The Rain
TTITLE14=Alabama - Patches
TTITLE15=Dottie West - I Fall To Pieces
TTITLE16=Dave Dudley - Six Days On The Road
TTITLE17=Jeannie C. Riley - Okie From Muskogee
TTITLE18=Johnny Cash - Folsom Prison Blues
TTITLE19=Glen Campbell - Redwing
TTITLE20=Patsy Cline - Just Out Of Reach
TTITLE21=George Jones - Cold Cold Heart
TTITLE22=Dave Dudley - Seven Lonely Days
TTITLE23=Jeannie C. Riley - The Girl Most Likely
TTITLE24=Jimmy Dean - Release Me
EXTD=
EXTT0=
EXTT1=
EXTT2=
EXTT3=
EXTT4=
EXTT5=
EXTT6=
EXTT7=
EXTT8=
EXTT9=
EXTT10=
EXTT11=
EXTT12=
EXTT13=
EXTT14=
EXTT15=
EXTT16=
EXTT17=
EXTT18=
EXTT19=
EXTT20=
EXTT21=
EXTT22=
EXTT23=
EXTT24=
PLAYORDER=
